<?xml version="1.0" encoding="UTF-8"?>
<svg id="Grafica" xmlns="http://www.w3.org/2000/svg" viewBox="0 0 393.45 95.92">
  <g id="Livello_1" data-name="Livello 1">
    <g>
      <path d="M72.86,39.71c-.41,1.08-1.43,1.85-2.62,1.93l.22,1.32.17,1.21.11,1.32.03,2.54-.14,1.49-.33,2.43-.66,2.51-.41,1.24-.44,1.13c1.08.14,2.01.86,2.46,1.9.44,1.24.08,2.57-.86,3.37l-1.57,1.38c-.47.47-1.21.77-1.99.77h-2.7l-.8.86-.86.83-.94.86-1.05.8-1.93,1.32-1.16.69-1.1.55-1.13.52-1.16.47-1.13.41-1.32.36-1.24.3-2.43.39-1.46.11-1.32.03s-1.27-.03-1.27-.03l-1.24-.08-2.54-.36-1.3-.3-1.24-.36-1.19-.41-1.21-.47-1.1-.52-1.1-.55-1.08-.63-1.02-.66-1.02-.74-.33-.25h-2.23c-1.16,0-2.23-.66-2.7-1.74-.19-.44-.3-.91-.28-1.38h-4.06c-1.24,0-2.37-.77-2.81-1.96-.41-1.19-.08-2.48.83-3.31l1.66-1.41c.47-.41.99-.63,1.54-.72l-.77-2.18-.39-1.3-.28-1.16-.25-1.35-.14-1.32-.11-1.27-.03-1.32.03-1.3.06-1.27.17-1.35.19-1.21.25-.97c-.47-.41-.8-.94-.94-1.54-.86-.55-1.41-1.49-1.41-2.54v-1.32c0-1.66,1.35-3.01,3.01-3.01h3.01l.72-.99.69-.88,1.57-1.82,1.08-.97.86-.77.97-.77,1.02-.72,2.01-1.27,1.16-.61,1.19-.52,1.19-.47,1.13-.39,1.21-.36,1.16-.3,1.41-.25,1.27-.17,1.24-.11h2.57l1.43.11,1.27.14,1.19.19,1.41.36,1.16.36,1.19.39,1.1.41,1.19.52,1.13.58,1.1.63.99.66,1.96,1.41.99.88.88.83.88.97.74.86.8,1.02.69.97.69,1.1h.77c.74,0,1.43.25,1.96.72l.77.69c.25.19.47.44.63.72.06.08.86.77.86.77.97.8,1.32,2.15.86,3.34Z" style="fill: #fff; fill-rule: evenodd;"/>
      <path id="_Path_" data-name="&amp;lt;Path&amp;gt;" d="M43.9,24.08l-1.14.11-1.14.14-1.14.18-1.07.28-1.1.32-1.03.36-1.03.39-1.03.46-.96.5-.93.57-.93.57-.89.64-.85.68-.82.71-.82.75-.71.82-.75.82-.64.85-.68.93-.57.93-.57.93-.46,1-.46,1.03-.39,1.03-.39,1.03-.28,1.1-.28,1.1-.18,1.14-.14,1.14-.07,1.17-.04,1.14.04,1.17.07,1.17.14,1.14.18,1.14.28,1.1.28,1.07.39,1.07.39,1.07.46,1,.46,1,.57.96.57.89.68.89.64.89.75.82.71.78.82.78.82.71.85.68.89.64.93.6.93.53.96.5,1.03.46,1.03.43,1.03.36,1.1.32,1.07.25,1.14.18,1.14.18,1.14.07,1.17.04,1.14-.04,1.17-.07,1.14-.18,1.1-.18,1.1-.25,1.1-.32,1.03-.36,1.03-.43,1.03-.46.96-.5.96-.53.89-.6.89-.64.89-.68.82-.71.78-.78.75-.78.71-.82.64-.89.68-.89.57-.89.57-.96.46-1,.46-1,.43-1.07.36-1.07.28-1.07.28-1.1.18-1.14.14-1.14.11-1.17v-2.31l-.11-1.17-.14-1.14-.18-1.14-.28-1.1-.28-1.1-.36-1.03-.43-1.03-.46-1.03-.46-1-.57-.93-.57-.93-.68-.93-.64-.85-.71-.82-.75-.82-.78-.75-.82-.71-.89-.68-.89-.64-.89-.57-.96-.57-.96-.5-1.03-.46-1.03-.39-1.03-.36-1.1-.32-1.1-.28-1.1-.18-1.14-.14-1.17-.11h-2.31Z" style="fill: #f08223;"/>
      <g id="_Group_" data-name="&amp;lt;Group&amp;gt;">
        <path id="_Compound_Path_" data-name="&amp;lt;Compound Path&amp;gt;" d="M60.7,59.38l.53-.75.46-.75.46-.78.39-.82.39-.82.36-.85.32-.85.28-.89.21-.89.21-.93.14-.96.11-.96.07-.93v-1.99l-.07-.96-.07-.93-.14-.93-.21-.89-.21-.85-.21-.85-.28-.78-3.63-.04.32,1.17.21,1.25.11,1.28.07,1.35.04.53.07.57.04.57v.57l-.04.78h-15.37v.57h15.34l-.04.64-.04.21h-15.26v.57h15.19l-.04.18-.14.82h-19.29v2.31h3.74v2.46h-3.74v2.17h3.74v1.85h-8.22v-17.51h1.49v-.85h-1.49v-1.07h1.49v-.85h-6.73v.85h1.74v1.07h-1.74v.85h1.57v17.51h-11.03l-1.64,1.42h12.67v1.67h-4.41l-1.21,1.46h22.2l-.39.14-.39.14-.39.11-.36.14-.43.11-.43.11-.39.11-.39.04-.43.11-.39.04-.43.07-.43.07-.43.04h-.43l-.43.04-.43.04h-2.7l-.53-.04-.46-.04h-.43l-.43-.04-.32-.04-.36-.04h-.25l-.21-.04h-.14l-.11-.04h-.04l.04.04.11.07.18.07.25.14.32.14.36.14.46.18.46.18.57.18.64.18.68.14.75.14.82.14.85.07.89.07.96.04.71-.04.71-.04.68-.07.64-.07.68-.11.68-.14.64-.14.64-.18.64-.18.6-.25.64-.25.6-.25.57-.28.57-.32.57-.32.57-.32.28-.18.25-.18.25-.18.25-.18.25-.18.25-.21.25-.18.21-.18h-20.85v-1.67h30.32l1.6-1.42h-8.08l.36-.46ZM35.75,46.5l-.64-.6.64-.6v1.21ZM34.72,45.5l-.85-.78h-.04l.89-.82.89.82h-.04l-.85.78ZM35.11,43.51l.6-.6v1.21l-.6-.6ZM34.72,43.11l-.64-.64h1.32l-.68.64ZM34.33,43.51l-.71.68v-1.35l.71.68ZM33.62,45.21l.71.68-.71.64v-1.32ZM33.65,47.28l1.07-1,1.03.93v.11l-.18-.14-.85.82-.85-.82-.25.18v-.11l.04.04ZM35.75,48.99l-.64-.6.64-.6v1.21ZM33.62,47.71l.71.68-.71.68v-1.35ZM33.65,49.8l1.07-1.03,1.03.96v.07l-.18-.14-.85.85-.85-.85-.25.18v-.07l.04.04ZM35.75,53.75l-.64-.57.64-.64v1.21ZM35.75,56.1l-.64-.6.64-.6v1.21ZM35.75,58.38l-.64-.6.64-.6v1.21ZM35.57,54.32l-.85.82-.82-.82.82-.78.85.78ZM33.94,52.05l.82-.75.78.75-.78.75-.82-.75ZM35.54,56.64l-.82.78-.78-.78.78-.75.82.75ZM35.15,50.91l.6-.6v1.21l-.6-.6ZM33.65,50.23l.71.68-.71.68v-1.35ZM33.65,52.51l.71.68-.71.68v-1.35ZM33.65,54.82l.71.68-.71.68v-1.35ZM33.65,57.1l.71.68-.71.68v-1.35ZM33.65,59.41l.71.68-.71.68v-1.35ZM33.94,58.91l.82-.78.85.78-.85.78-.82-.78ZM35.79,59.48v1.21l-.6-.6.6-.6ZM33.65,62.97v-1.49h.04l1.07-1,1.03.96v1.53h-2.13ZM57.03,58.02h.28l-.04.11-.25.28v-.39ZM59.13,54.89l-.43.82-.07.14h-1.6v-2.42h2.63l-.21.57-.32.89ZM56,55.89h-4.77v-2.46h4.77v2.46ZM56,58.06v1.71l-.11.14h-4.66v-1.85h4.77ZM45.82,53.43h4.38v2.46h-4.38v-2.46ZM45.82,58.06h4.38v1.85h-4.38v-1.85Z" style="fill: #18223b; fill-rule: evenodd;"/>
        <path id="_Path_-2" data-name="&amp;lt;Path&amp;gt;" d="M45.07,26.64l.46.14.57.21.71.28.82.32.93.43,1,.5,1,.57,1.1.68,1.07.75,1.07.82,1.1.93,1.03,1.03.96,1.14.85,1.25h3.45l-.46-.6-.46-.6-.46-.6-.5-.53-.5-.53-.5-.53-.57-.46-.53-.46-.53-.43-.53-.43-.57-.39-.53-.39-.57-.32-.53-.32-.57-.32-.53-.25-.85-.39-.75-.32-.78-.28-.71-.21-.71-.21-.71-.14-.6-.14-.57-.07-.53-.07-.46-.07h-.43l-.36-.04h-.64l.07.04.28.07Z" style="fill: #18223b;"/>
        <path id="_Path_-3" data-name="&amp;lt;Path&amp;gt;" d="M51.05,46.53v-6.16h2.06l.68-1.07h-5.73l.68,1.07h1.67v6.16h.64Z" style="fill: #18223b;"/>
        <path id="_Compound_Path_-2" data-name="&amp;lt;Compound Path&amp;gt;" d="M22.09,36.78h-1.32v-1.32h2.85v.04h1l8.9-4.23.04-.21.04-.18.11-.14.14-.11.18-.14.18-.07.21-.07h.46l.21.07.18.07.18.14.14.11.11.14.07.18,22.88,5.41h9.14l.78.68h-32.56l.18.85h33.13l.75.64H27.28l-.46.78h-2.13l-.5-.78h-2.1v-1.85ZM56.53,36.5l-20.85-4.91-.07.18-.21.21-.25.11.75,4.41h20.64ZM25.33,36.5h8.08l.75-4.41-.25-.11-.21-.18-8.36,3.95v.75ZM25.33,38.03h7.79l.14-.89h-7.93v.89Z" style="fill: #18223b; fill-rule: evenodd;"/>
      </g>
    </g>
    <path d="M108.74,70.77c-1.3,0-2.35-1.05-2.35-2.35v-6.03l-1.87,3.34c-.41.74-1.2,1.2-2.05,1.2h-2.44c-.85,0-1.63-.46-2.05-1.2l-1.87-3.34v6.03c0,1.3-1.05,2.35-2.35,2.35h-4.26c-1.3,0-2.35-1.05-2.35-2.35v-21.29c0-1.3,1.05-2.35,2.35-2.35h5.31c.85,0,1.63.46,2.04,1.2l4.41,7.85,4.43-7.85c.42-.74,1.2-1.19,2.04-1.19h5.25c1.3,0,2.35,1.05,2.35,2.35v21.29c0,1.3-1.05,2.35-2.35,2.35h-4.26Z" style="fill: #fff;"/>
    <path d="M123.88,71.14c-5.72,0-10.03-4.55-10.03-10.59s4.31-10.59,10.03-10.59c1.34,0,2.63.27,3.79.78.38-.26.83-.41,1.33-.41h4.01c1.3,0,2.35,1.05,2.35,2.35v15.74c0,1.3-1.05,2.35-2.35,2.35h-4.01c-.49,0-.95-.15-1.33-.41-1.17.51-2.45.78-3.79.78ZM124.65,58.55c-1.16,0-1.97.82-1.97,2s.81,2,1.97,2,2-.82,2-2-.82-2-2-2Z" style="fill: #fff;"/>
    <rect x="134.56" y="43.86" width="8.7" height="26.91" rx="2.35" ry="2.35" style="fill: #fff;"/>
    <path d="M151.6,71.14c-5.72,0-10.03-4.55-10.03-10.59s4.31-10.59,10.03-10.59c1.34,0,2.63.27,3.79.78.38-.26.83-.41,1.33-.41h4.01c1.3,0,2.35,1.05,2.35,2.35v15.74c0,1.3-1.05,2.35-2.35,2.35h-4.01c-.49,0-.95-.15-1.33-.41-1.17.51-2.45.78-3.79.78ZM152.37,58.55c-1.16,0-1.97.82-1.97,2s.81,2,1.97,2,2-.82,2-2-.82-2-2-2Z" style="fill: #fff;"/>
    <path d="M189.86,77c-5.26,0-9.33-3.03-10.15-7.55-.12-.68.06-1.39.51-1.92.25-.3.57-.53.92-.67-1.49-1.77-2.36-4.09-2.36-6.71,0-5.71,4.39-10.18,10-10.18,1.38,0,2.68.26,3.85.77.37-.25.82-.39,1.3-.39h4.01c1.3,0,2.35,1.05,2.35,2.35v14.04c0,6.05-4.29,10.28-10.43,10.28ZM189.62,58.43c-1.18,0-2,.71-2,1.73s.81,1.76,2,1.76,1.97-.72,1.97-1.76-.83-1.73-1.97-1.73Z" style="fill: #fff;"/>
    <path d="M209.22,71.14c-6.16,0-10.8-4.55-10.8-10.59s4.64-10.59,10.8-10.59,10.8,4.55,10.8,10.59-4.64,10.59-10.8,10.59ZM209.22,58.55c-1.16,0-1.97.82-1.97,2s.81,2,1.97,2,1.97-.81,1.97-2-.79-2-1.97-2Z" style="fill: #fff;"/>
    <path d="M231.7,70.77c-1.3,0-2.35-1.05-2.35-2.35v-8.7c0-1.03-.52-1.17-1.08-1.17-1.2,0-1.36.66-1.36,1.23v8.64c0,1.3-1.05,2.35-2.35,2.35h-4.01c-1.3,0-2.35-1.05-2.35-2.35v-15.74c0-1.3,1.05-2.35,2.35-2.35h4.01c.47,0,.9.14,1.27.37,1.14-.49,2.4-.74,3.73-.74,5,0,8.49,3.48,8.49,8.46v10c0,1.3-1.05,2.35-2.35,2.35h-4.01Z" style="fill: #fff;"/>
    <path d="M247.01,71.14c-6.19,0-10.86-4.55-10.86-10.59s4.64-10.59,10.8-10.59,10.8,4.58,10.8,10.65c0,.7-.06,1.33-.18,1.86-.04.15-.09.3-.15.44.13.48.11,1-.07,1.48-1.58,4.1-5.64,6.75-10.33,6.75Z" style="fill: #fff;"/>
    <path d="M271.86,70.77c-.96,0-1.83-.59-2.18-1.48l-8.45-21.29c-.29-.72-.2-1.54.24-2.18.44-.64,1.16-1.03,1.94-1.03h4.75c.98,0,1.85.6,2.19,1.52l3.74,9.87,3.76-9.87c.35-.91,1.22-1.51,2.19-1.51h4.66c.78,0,1.5.39,1.94,1.03.44.64.53,1.46.24,2.18l-8.45,21.29c-.36.89-1.22,1.48-2.18,1.48h-4.38Z" style="fill: #fff;"/>
    <path d="M286.94,70.77c-1.3,0-2.35-1.05-2.35-2.35v-15.74c0-.61.23-1.16.61-1.58-.71-.84-1.14-1.93-1.14-3.14,0-2.72,2.14-4.85,4.88-4.85s4.88,2.13,4.88,4.85c0,1.21-.42,2.3-1.14,3.14.38.42.61.97.61,1.58v15.74c0,1.3-1.05,2.35-2.35,2.35h-4.01Z" style="fill: #fff;"/>
    <path d="M301.81,70.77c-4.91,0-7.84-2.73-7.84-7.31v-4.75h-.15c-1.3,0-2.35-1.05-2.35-2.35v-3.67c0-1.3,1.05-2.35,2.35-2.35h.37v-1.85c0-1.3,1.05-2.35,2.35-2.35h3.79c1.3,0,2.35,1.05,2.35,2.35v1.85h1.29c1.3,0,2.35,1.05,2.35,2.35v3.67c0,1.3-1.05,2.35-2.35,2.35h-1.29v3.69h1.29c1.3,0,2.35,1.06,2.35,2.35v3.67c0,1.3-1.05,2.35-2.35,2.35h-2.16Z" style="fill: #fff;"/>
    <path d="M313.95,70.77c-4.91,0-7.84-2.73-7.84-7.31v-4.75h-.15c-1.3,0-2.35-1.05-2.35-2.35v-3.67c0-1.3,1.05-2.35,2.35-2.35h.37v-1.85c0-1.3,1.05-2.35,2.35-2.35h3.8c1.3,0,2.35,1.05,2.35,2.35v1.85h1.29c1.3,0,2.35,1.05,2.35,2.35v3.67c0,1.3-1.05,2.35-2.35,2.35h-1.29v3.69h1.29c1.3,0,2.35,1.06,2.35,2.35v3.67c0,1.3-1.05,2.35-2.35,2.35h-2.16Z" style="fill: #fff;"/>
    <path d="M326.51,71.14c-6.16,0-10.8-4.55-10.8-10.59s4.64-10.59,10.8-10.59,10.8,4.55,10.8,10.59-4.64,10.59-10.8,10.59ZM326.51,58.55c-1.16,0-1.97.82-1.97,2s.81,2,1.97,2,1.97-.81,1.97-2-.79-2-1.97-2Z" style="fill: #fff;"/>
    <path d="M337.85,70.77c-1.3,0-2.35-1.05-2.35-2.35v-15.74c0-1.3,1.05-2.35,2.35-2.35h4.01c.56,0,1.08.2,1.49.53,1.09-.51,2.27-.78,3.51-.78h.59c1.3,0,2.35,1.05,2.35,2.35v4.13c0,1.3-1.05,2.35-2.35,2.35h-.59c-2.65,0-2.65,1.4-2.65,2v7.5c0,1.3-1.05,2.35-2.35,2.35h-4.01Z" style="fill: #fff;"/>
    <path d="M350.07,70.77c-1.3,0-2.35-1.05-2.35-2.35v-15.74c0-.61.23-1.16.61-1.58-.71-.84-1.14-1.93-1.14-3.14,0-2.72,2.14-4.85,4.88-4.85s4.88,2.13,4.88,4.85c0,1.21-.42,2.3-1.14,3.14.38.42.61.97.61,1.58v15.74c0,1.3-1.05,2.35-2.35,2.35h-4.01Z" style="fill: #fff;"/>
    <path d="M365.47,71.14c-6.16,0-10.8-4.55-10.8-10.59s4.64-10.59,10.8-10.59,10.8,4.55,10.8,10.59-4.64,10.59-10.8,10.59ZM365.47,58.55c-1.16,0-1.97.82-1.97,2s.81,2,1.97,2,1.97-.81,1.97-2-.79-2-1.97-2Z" style="fill: #fff;"/>
    <rect x="86.64" y="20.18" width="7.91" height="20.76" rx="2.35" ry="2.35" style="fill: #fff;"/>
    <path d="M110.99,40.93c-1.3,0-2.35-1.05-2.35-2.35v-6.82l-.13,6.82c0,1.3-1.05,2.35-2.35,2.35h-3.03c-1.3,0-2.35-1.05-2.35-2.35v-6.82l-.15,6.82c0,1.3-1.05,2.35-2.35,2.35h-3.03c-1.3,0-2.35-1.05-2.35-2.35v-11.87c0-1.3,1.05-2.35,2.35-2.35h3.03c.32,0,.62.06.9.18.8-.3,1.68-.46,2.61-.46,1.46,0,2.78.39,3.86,1.12,1.15-.73,2.5-1.12,3.99-1.12,3.94,0,6.7,2.78,6.7,6.77v7.73c0,1.3-1.05,2.35-2.35,2.35h-3.03Z" style="fill: #fff;"/>
    <path d="M116.73,45.36c-1.3,0-2.35-1.05-2.35-2.35v-16.29c0-1.3,1.05-2.35,2.35-2.35h3.03c.37,0,.73.09,1.04.25.88-.34,1.83-.53,2.82-.53,4.63,0,8.12,3.68,8.12,8.56s-3.49,8.56-8.12,8.56c-.52,0-1.03-.05-1.52-.15v1.94c0,1.3-1.05,2.35-2.35,2.35h-3.03ZM123.01,31.72c-.56,0-.91.36-.91.93s.35.94.91.94.91-.35.91-.94-.34-.93-.91-.93Z" style="fill: #fff;"/>
    <path d="M131.63,40.93c-1.3,0-2.35-1.05-2.35-2.35v-11.87c0-1.3,1.05-2.35,2.35-2.35h3.03c.43,0,.83.12,1.18.32.81-.33,1.68-.51,2.59-.51h.44c1.3,0,2.35,1.05,2.35,2.35v3.12c0,1.3-1.05,2.35-2.35,2.35h-.44c-1.43,0-1.43.54-1.43.94v5.66c0,1.3-1.05,2.35-2.35,2.35h-3.03Z" style="fill: #fff;"/>
    <path d="M145.95,41.21c-5,0-8.77-3.68-8.77-8.56s3.83-8.56,8.73-8.56,8.73,3.7,8.73,8.61c0,.58-.05,1.09-.15,1.53-.02.09-.04.17-.07.25.08.42.04.86-.12,1.28-1.28,3.31-4.55,5.46-8.34,5.46Z" style="fill: #fff;"/>
    <path d="M158.6,41.21c-4.22,0-7.28-2.6-7.28-6.19,0-.78.39-1.48.98-1.9-.48-.76-.79-1.71-.79-2.92,0-3.6,2.86-6.12,6.95-6.12s7.03,2.52,7.03,6c0,.68-.29,1.29-.75,1.72.58.8.96,1.83.96,3.17,0,3.67-2.92,6.23-7.1,6.23Z" style="fill: #fff;"/>
    <path d="M170.62,41.21c-4.57,0-8.14-3.76-8.14-8.56s3.58-8.56,8.14-8.56c.99,0,1.94.18,2.82.53.31-.16.67-.25,1.04-.25h3.03c1.3,0,2.35,1.05,2.35,2.35v11.87c0,1.3-1.05,2.35-2.35,2.35h-3.03c-.38,0-.73-.09-1.05-.25-.88.34-1.83.52-2.82.52ZM171.2,31.72c-.56,0-.91.36-.91.93s.35.94.91.94.94-.36.94-.94-.36-.93-.94-.93Z" style="fill: #fff;"/>
    <path d="M191.37,41.21c-4.89,0-8.73-3.76-8.73-8.56s3.83-8.56,8.73-8.56c4.29,0,7.75,2.8,8.41,6.81.1.62-.05,1.25-.41,1.76.37.5.51,1.14.41,1.76-.66,4.01-4.12,6.81-8.41,6.81ZM191.37,31.72c-.56,0-.91.36-.91.93s.35.94.91.94c.34,0,.6-.13.67-.33.08-.22.18-.42.31-.6-.13-.18-.24-.39-.31-.6-.07-.2-.33-.33-.67-.33Z" style="fill: #fff;"/>
    <path d="M205.27,41.21c-4.89,0-8.73-3.76-8.73-8.56s3.83-8.56,8.73-8.56,8.73,3.76,8.73,8.56-3.83,8.56-8.73,8.56ZM205.27,31.72c-.56,0-.91.36-.91.93s.35.94.91.94.91-.35.91-.94-.34-.93-.91-.93Z" style="fill: #fff;"/>
    <path d="M218.01,41.21c-4.22,0-7.28-2.6-7.28-6.19,0-.78.39-1.48.98-1.9-.48-.76-.79-1.71-.79-2.92,0-3.6,2.86-6.12,6.95-6.12s7.03,2.52,7.03,6c0,.68-.29,1.29-.75,1.72.58.8.96,1.83.96,3.17,0,3.67-2.92,6.23-7.1,6.23Z" style="fill: #fff;"/>
    <path d="M229.77,40.93c-4,0-6.49-2.34-6.49-6.09v-3.05c-1.07-.21-1.89-1.16-1.89-2.3v-2.77c0-1.19.89-2.18,2.05-2.33v-.84c0-1.3,1.05-2.35,2.35-2.35h2.86c1.3,0,2.35,1.05,2.35,2.35v.82h.4c1.3,0,2.35,1.05,2.35,2.35v2.77c0,1.3-1.05,2.35-2.35,2.35h-.4v1.64h.4c1.3,0,2.35,1.05,2.35,2.35v2.77c0,1.3-1.05,2.35-2.35,2.35h-1.63Z" style="fill: #fff;"/>
    <path d="M233.67,40.93c-1.3,0-2.35-1.05-2.35-2.35v-11.87c0-1.3,1.05-2.35,2.35-2.35h3.03c.43,0,.83.12,1.18.32.81-.33,1.68-.51,2.59-.51h.44c1.3,0,2.35,1.05,2.35,2.35v3.12c0,1.3-1.05,2.35-2.35,2.35h-.44c-1.43,0-1.43.54-1.43.94v5.66c0,1.3-1.05,2.35-2.35,2.35h-3.03Z" style="fill: #fff;"/>
    <path d="M247.03,41.21c-4.01,0-6.82-2.83-6.82-6.88v-7.61c0-1.3,1.05-2.35,2.35-2.35h3.03c1.3,0,2.35,1.05,2.35,2.35v6.73l.37.1v-6.83c0-1.3,1.04-2.35,2.34-2.35h3.03c1.3,0,2.35,1.05,2.35,2.35v11.87c0,1.3-1.05,2.35-2.35,2.35h-3.03c-.33,0-.65-.07-.94-.2-.82.31-1.71.48-2.67.48Z" style="fill: #fff;"/>
    <path d="M256,40.93c-1.3,0-2.35-1.05-2.35-2.35v-2.21c0-.54.19-1.07.54-1.49l2.38-2.89h-.48c-1.3,0-2.35-1.05-2.35-2.35v-2.93c0-1.3,1.05-2.35,2.35-2.35h9.87c1.3,0,2.35,1.05,2.35,2.35v2.21c0,.54-.19,1.07-.54,1.49l-2.38,2.89h.73c1.3,0,2.35,1.05,2.35,2.35v2.93c0,1.3-1.05,2.35-2.35,2.35h-10.13Z" style="fill: #fff;"/>
    <path d="M268.51,40.93c-1.3,0-2.35-1.05-2.35-2.35v-11.87c0-.43.12-.84.32-1.18-.45-.67-.72-1.49-.72-2.38,0-2.37,1.87-4.23,4.26-4.23s4.26,1.86,4.26,4.23c0,.89-.26,1.7-.72,2.38.2.35.32.75.32,1.18v11.87c0,1.3-1.05,2.35-2.35,2.35h-3.03Z" style="fill: #fff;"/>
    <path d="M280.13,41.21c-4.89,0-8.73-3.76-8.73-8.56s3.83-8.56,8.73-8.56,8.73,3.76,8.73,8.56-3.83,8.56-8.73,8.56ZM280.13,31.72c-.56,0-.91.36-.91.93s.35.94.91.94.91-.35.91-.94-.34-.93-.91-.93Z" style="fill: #fff;"/>
    <path d="M297.08,40.93c-1.3,0-2.35-1.05-2.35-2.35v-6.56c0-.22-.05-.3-.05-.3-.02,0-.03,0-.05,0-.59,0-.59.1-.59.35v6.52c0,1.3-1.05,2.35-2.35,2.35h-3.03c-1.3,0-2.35-1.05-2.35-2.35v-11.87c0-1.3,1.05-2.35,2.35-2.35h3.03c.35,0,.69.08.99.22.86-.33,1.8-.5,2.78-.5,4.11,0,6.98,2.86,6.98,6.96v7.54c0,1.3-1.05,2.35-2.35,2.35h-3.03Z" style="fill: #fff;"/>
    <g>
      <path d="M88.99,22.53h3.21v16.06h-3.21v-16.06Z" style="fill: #18223b;"/>
      <path d="M95.28,26.72h3.03v1.23c.89-1,2.07-1.51,3.51-1.51,1.7,0,3.05.77,3.77,2.05.93-1.33,2.33-2.05,4.07-2.05,2.61,0,4.35,1.75,4.35,4.42v7.73h-3.03v-6.82c0-1.44-.91-2.4-2.33-2.4-1.49,0-2.49.98-2.49,2.44v6.77h-3.03v-6.82c0-1.44-.93-2.4-2.33-2.4-1.49,0-2.51.98-2.51,2.44v6.77h-3.03v-11.87Z" style="fill: #18223b;"/>
      <path d="M116.73,26.72h3.03v1.4c.96-1.05,2.28-1.68,3.86-1.68,3.31,0,5.77,2.68,5.77,6.22s-2.47,6.22-5.77,6.22c-1.58,0-2.91-.63-3.86-1.68v5.82h-3.03v-16.29ZM126.27,32.65c0-1.86-1.37-3.28-3.26-3.28s-3.26,1.42-3.26,3.28,1.4,3.28,3.26,3.28,3.26-1.42,3.26-3.28Z" style="fill: #18223b;"/>
      <path d="M131.63,26.72h3.03v1.79c.93-1.23,2.21-1.98,3.77-1.98h.44v3.12h-.44c-2.42,0-3.77,1.28-3.77,3.28v5.66h-3.03v-11.87Z" style="fill: #18223b;"/>
      <path d="M139.53,32.65c0-3.54,2.75-6.22,6.38-6.22s6.38,2.68,6.38,6.26c0,.33-.02.7-.09,1h-9.43c.4,1.54,1.63,2.54,3.26,2.54,1.23,0,2.26-.56,2.79-1.33h3.28c-.91,2.35-3.26,3.96-6.15,3.96-3.68,0-6.42-2.68-6.42-6.22ZM142.79,31.49h6.26c-.37-1.44-1.58-2.42-3.14-2.42s-2.7.96-3.12,2.42Z" style="fill: #18223b;"/>
      <path d="M153.67,35.03h3.05c0,.81.79,1.35,1.89,1.35,1,0,1.7-.46,1.7-1.09,0-1.93-6.45-.81-6.45-5.07,0-2.4,2-3.77,4.61-3.77,2.77,0,4.68,1.54,4.68,3.65h-3.03c0-.7-.67-1.19-1.68-1.19-.93,0-1.56.42-1.56,1.02,0,1.89,6.47.79,6.47,5.05,0,2.33-1.91,3.89-4.75,3.89s-4.94-1.61-4.94-3.84Z" style="fill: #18223b;"/>
      <path d="M164.82,32.65c0-3.54,2.49-6.22,5.8-6.22,1.58,0,2.91.63,3.86,1.68v-1.4h3.03v11.87h-3.03v-1.4c-.96,1.05-2.28,1.68-3.86,1.68-3.31,0-5.8-2.68-5.8-6.22ZM174.48,32.65c0-1.86-1.4-3.28-3.28-3.28s-3.26,1.42-3.26,3.28,1.4,3.28,3.26,3.28,3.28-1.42,3.28-3.28Z" style="fill: #18223b;"/>
      <path d="M184.99,32.65c0-3.54,2.75-6.22,6.38-6.22,3.17,0,5.63,2.03,6.1,4.84h-3.21c-.4-1.14-1.51-1.91-2.89-1.91-1.86,0-3.26,1.42-3.26,3.28s1.4,3.28,3.26,3.28c1.37,0,2.49-.77,2.89-1.91h3.21c-.46,2.82-2.93,4.84-6.1,4.84-3.63,0-6.38-2.68-6.38-6.22Z" style="fill: #18223b;"/>
      <path d="M198.89,32.65c0-3.54,2.75-6.22,6.38-6.22s6.38,2.68,6.38,6.22-2.75,6.22-6.38,6.22-6.38-2.68-6.38-6.22ZM208.53,32.65c0-1.86-1.37-3.28-3.26-3.28s-3.26,1.42-3.26,3.28,1.4,3.28,3.26,3.28,3.26-1.42,3.26-3.28Z" style="fill: #18223b;"/>
      <path d="M213.08,35.03h3.05c0,.81.79,1.35,1.89,1.35,1,0,1.7-.46,1.7-1.09,0-1.93-6.45-.81-6.45-5.07,0-2.4,2-3.77,4.61-3.77,2.77,0,4.68,1.54,4.68,3.65h-3.03c0-.7-.67-1.19-1.68-1.19-.93,0-1.56.42-1.56,1.02,0,1.89,6.47.79,6.47,5.05,0,2.33-1.91,3.89-4.75,3.89s-4.94-1.61-4.94-3.84Z" style="fill: #18223b;"/>
      <path d="M225.63,34.84v-5.35h-1.89v-2.77h1.07c.63,0,.98-.33.98-.96v-2.21h2.86v3.17h2.75v2.77h-2.75v4.84c0,.93.58,1.49,1.56,1.49h1.19v2.77h-1.63c-2.72,0-4.14-1.3-4.14-3.75Z" style="fill: #18223b;"/>
      <path d="M233.67,26.72h3.03v1.79c.93-1.23,2.21-1.98,3.77-1.98h.44v3.12h-.44c-2.42,0-3.77,1.28-3.77,3.28v5.66h-3.03v-11.87Z" style="fill: #18223b;"/>
      <path d="M242.56,34.33v-7.61h3.03v6.73c0,1.51.98,2.49,2.44,2.49,1.56,0,2.61-1,2.61-2.54v-6.68h3.03v11.87h-3.03v-1.3c-.91,1.05-2.14,1.58-3.61,1.58-2.68,0-4.47-1.79-4.47-4.54Z" style="fill: #18223b;"/>
      <path d="M256,36.38l5.54-6.73h-5.45v-2.93h9.87v2.21l-5.54,6.73h5.7v2.93h-10.13v-2.21Z" style="fill: #18223b;"/>
      <path d="M268.11,23.15c0-1.07.84-1.89,1.91-1.89s1.91.81,1.91,1.89-.84,1.88-1.91,1.88-1.91-.81-1.91-1.88ZM268.51,26.72h3.03v11.87h-3.03v-11.87Z" style="fill: #18223b;"/>
      <path d="M303.47,40.93c-1.3,0-2.35-1.05-2.35-2.35v-11.87c0-.43.12-.84.32-1.18-.45-.67-.72-1.49-.72-2.38,0-2.37,1.87-4.23,4.26-4.23s4.26,1.86,4.26,4.23c0,.89-.26,1.7-.72,2.38.2.35.32.75.32,1.18v11.87c0,1.3-1.05,2.35-2.35,2.35h-3.03Z" style="fill: #fff;"/>
      <path d="M303.08,23.15c0-1.07.84-1.89,1.91-1.89s1.91.81,1.91,1.89-.84,1.88-1.91,1.88-1.91-.81-1.91-1.88ZM303.47,26.72h3.03v11.87h-3.03v-11.87Z" style="fill: #18223b;"/>
      <path d="M273.75,32.65c0-3.54,2.75-6.22,6.38-6.22s6.38,2.68,6.38,6.22-2.75,6.22-6.38,6.22-6.38-2.68-6.38-6.22ZM283.38,32.65c0-1.86-1.37-3.28-3.26-3.28s-3.26,1.42-3.26,3.28,1.4,3.28,3.26,3.28,3.26-1.42,3.26-3.28Z" style="fill: #18223b;"/>
      <path d="M288.67,26.72h3.03v1.33c.93-1.05,2.23-1.61,3.77-1.61,2.79,0,4.63,1.82,4.63,4.61v7.54h-3.03v-6.56c0-1.61-1.02-2.65-2.58-2.65-1.68,0-2.79,1.07-2.79,2.7v6.52h-3.03v-11.87Z" style="fill: #18223b;"/>
    </g>
    <path d="M89.52,47.13h5.31l6.45,11.48,6.48-11.48h5.25v21.29h-4.26v-15.03l-6.26,11.2h-2.44l-6.26-11.2v15.03h-4.26v-21.29Z" style="fill: #18223b;"/>
    <path d="M116.19,60.55c0-4.69,3.3-8.24,7.68-8.24,2.1,0,3.86.83,5.12,2.22v-1.85h4.01v15.74h-4.01v-1.85c-1.26,1.39-3.02,2.22-5.12,2.22-4.38,0-7.68-3.55-7.68-8.24ZM129,60.55c0-2.47-1.85-4.35-4.35-4.35s-4.32,1.88-4.32,4.35,1.85,4.35,4.32,4.35,4.35-1.88,4.35-4.35Z" style="fill: #18223b;"/>
    <path d="M136.91,46.21h4.01v22.22h-4.01v-22.22Z" style="fill: #18223b;"/>
    <path d="M143.92,60.55c0-4.69,3.3-8.24,7.68-8.24,2.1,0,3.86.83,5.12,2.22v-1.85h4.01v15.74h-4.01v-1.85c-1.26,1.39-3.02,2.22-5.12,2.22-4.38,0-7.68-3.55-7.68-8.24ZM156.72,60.55c0-2.47-1.85-4.35-4.35-4.35s-4.32,1.88-4.32,4.35,1.85,4.35,4.32,4.35,4.35-1.88,4.35-4.35Z" style="fill: #18223b;"/>
    <path d="M181.13,60.15c0-4.44,3.3-7.84,7.65-7.84,2.13,0,3.89.8,5.15,2.16v-1.79h4.01v14.04c0,4.78-3.24,7.93-8.09,7.93-4.07,0-7.22-2.19-7.84-5.62h4.14c.46,1.26,1.97,2.07,3.73,2.07,2.47,0,4.04-1.57,4.04-4.2v-1.05c-1.26,1.33-3.02,2.13-5.12,2.13-4.38,0-7.68-3.36-7.68-7.84ZM193.94,60.15c0-2.31-1.88-4.07-4.32-4.07s-4.35,1.76-4.35,4.07,1.85,4.1,4.35,4.1,4.32-1.76,4.32-4.1Z" style="fill: #18223b;"/>
    <path d="M200.77,60.55c0-4.69,3.64-8.24,8.45-8.24s8.46,3.55,8.46,8.24-3.64,8.24-8.46,8.24-8.45-3.55-8.45-8.24ZM213.54,60.55c0-2.47-1.82-4.35-4.32-4.35s-4.32,1.88-4.32,4.35,1.85,4.35,4.32,4.35,4.32-1.88,4.32-4.35Z" style="fill: #18223b;"/>
    <path d="M220.56,52.69h4.01v1.76c1.23-1.39,2.96-2.13,5-2.13,3.7,0,6.14,2.41,6.14,6.11v10h-4.01v-8.7c0-2.13-1.36-3.52-3.42-3.52-2.22,0-3.7,1.42-3.7,3.58v8.64h-4.01v-15.74Z" style="fill: #18223b;"/>
    <path d="M174.77,70.77c-1.3,0-2.35-1.05-2.35-2.35v-8.7c0-1.03-.52-1.17-1.08-1.17-1.2,0-1.36.66-1.36,1.23v8.64c0,1.3-1.05,2.35-2.35,2.35h-4.01c-1.3,0-2.35-1.05-2.35-2.35v-15.74c0-1.3,1.05-2.35,2.35-2.35h4.01c.47,0,.9.14,1.27.37,1.14-.49,2.4-.74,3.73-.74,5,0,8.49,3.48,8.49,8.46v10c0,1.3-1.05,2.35-2.35,2.35h-4.01Z" style="fill: #fff;"/>
    <path d="M163.64,52.69h4.01v1.76c1.23-1.39,2.96-2.13,5-2.13,3.7,0,6.14,2.41,6.14,6.11v10h-4.01v-8.7c0-2.13-1.36-3.52-3.42-3.52-2.22,0-3.7,1.42-3.7,3.58v8.64h-4.01v-15.74Z" style="fill: #18223b;"/>
    <path d="M238.5,60.55c0-4.69,3.64-8.24,8.45-8.24s8.46,3.55,8.46,8.3c0,.43-.03.93-.12,1.33h-12.5c.52,2.04,2.16,3.36,4.32,3.36,1.64,0,2.99-.74,3.7-1.76h4.35c-1.2,3.12-4.32,5.25-8.15,5.25-4.88,0-8.52-3.55-8.52-8.24ZM242.82,59.01h8.3c-.49-1.91-2.1-3.21-4.17-3.21s-3.58,1.26-4.13,3.21Z" style="fill: #18223b;"/>
    <path d="M263.41,47.13h4.75l5.92,15.64,5.96-15.64h4.66l-8.45,21.29h-4.38l-8.45-21.29Z" style="fill: #18223b;"/>
    <path d="M286.41,47.96c0-1.42,1.11-2.5,2.53-2.5s2.53,1.08,2.53,2.5-1.11,2.5-2.53,2.5-2.53-1.08-2.53-2.5ZM286.94,52.69h4.01v15.74h-4.01v-15.74Z" style="fill: #18223b;"/>
    <path d="M296.32,63.45v-7.1h-2.5v-3.67h1.42c.83,0,1.3-.43,1.3-1.26v-2.93h3.79v4.2h3.64v3.67h-3.64v6.42c0,1.23.77,1.97,2.07,1.97h1.57v3.67h-2.16c-3.61,0-5.49-1.73-5.49-4.97Z" style="fill: #18223b;"/>
    <path d="M308.45,63.45v-7.1h-2.5v-3.67h1.42c.83,0,1.3-.43,1.3-1.26v-2.93h3.8v4.2h3.64v3.67h-3.64v6.42c0,1.23.77,1.97,2.07,1.97h1.57v3.67h-2.16c-3.61,0-5.49-1.73-5.49-4.97Z" style="fill: #18223b;"/>
    <path d="M318.06,60.55c0-4.69,3.64-8.24,8.45-8.24s8.46,3.55,8.46,8.24-3.64,8.24-8.46,8.24-8.45-3.55-8.45-8.24ZM330.83,60.55c0-2.47-1.82-4.35-4.32-4.35s-4.32,1.88-4.32,4.35,1.85,4.35,4.32,4.35,4.32-1.88,4.32-4.35Z" style="fill: #18223b;"/>
    <path d="M337.85,52.69h4.01v2.38c1.23-1.64,2.93-2.62,5-2.62h.59v4.13h-.59c-3.21,0-5,1.7-5,4.35v7.5h-4.01v-15.74Z" style="fill: #18223b;"/>
    <path d="M349.55,47.96c0-1.42,1.11-2.5,2.53-2.5s2.53,1.08,2.53,2.5-1.11,2.5-2.53,2.5-2.53-1.08-2.53-2.5ZM350.07,52.69h4.01v15.74h-4.01v-15.74Z" style="fill: #18223b;"/>
    <path d="M357.02,60.55c0-4.69,3.64-8.24,8.45-8.24s8.46,3.55,8.46,8.24-3.64,8.24-8.46,8.24-8.45-3.55-8.45-8.24ZM369.79,60.55c0-2.47-1.82-4.35-4.32-4.35s-4.32,1.88-4.32,4.35,1.85,4.35,4.32,4.35,4.32-1.88,4.32-4.35Z" style="fill: #18223b;"/>
  </g>
</svg>